# xmcd
# 
# Track frame offsets:
#     150
#     10516
#     47950
#     64354
#     98594
#     143286
#     169336
#     179317
#     198436
#     204385
#     223991
# 
# Disc length: 3979
# 
# Revision: 0
# Processed by: cddbd v1.5.2PL0 Copyright (c) Steve Scherf et al.
# Submitted via: fre:ac v1.0.17
# 
DISCID=9a0f890b
DTITLE=Josh T. Pearson - To Hull And Back
DYEAR=2007
DGENRE=Country
TTITLE0=Hello Hull
TTITLE1=The Clash
TTITLE2=Texas Shit
TTITLE3=Sins Of The Father
TTITLE4=Angels Vs. Devils
TTITLE5=Banished
TTITLE6=Hull Is #1
TTITLE7=Gunfighters Lullaby
TTITLE8=Fuck A Duck
TTITLE9=Little Angel Eyes
TTITLE10=Devils On The Run
EXTD=
EXTT0=
EXTT1=
EXTT2=
EXTT3=
EXTT4=
EXTT5=
EXTT6=
EXTT7=
EXTT8=
EXTT9=
EXTT10=
PLAYORDER=
